<?xml version="1.0" standalone="no"?>
<!DOCTYPE svg PUBLIC "-//W3C//DTD SVG 20010904//EN"
 "http://www.w3.org/TR/2001/REC-SVG-20010904/DTD/svg10.dtd">
<svg version="1.0" xmlns="http://www.w3.org/2000/svg"
 width="156.000000pt" height="156.000000pt" viewBox="0 0 156.000000 156.000000"
 preserveAspectRatio="xMidYMid meet">
<metadata>
Created by potrace 1.11, written by Peter Selinger 2001-2013
</metadata>
<g transform="translate(0.000000,156.000000) scale(0.100000,-0.100000)"
fill="#000000" stroke="none">
<path d="M420 1545 c-93 -18 -112 -23 -140 -36 -56 -25 -55 -24 -54 -87 2
-114 54 -209 159 -290 27 -21 28 -24 12 -33 -61 -35 -104 -106 -114 -188 -4
-35 -13 -54 -40 -80 -88 -88 -104 -207 -40 -302 12 -19 33 -70 47 -114 48
-162 75 -190 273 -295 32 -17 80 -46 106 -65 97 -70 216 -66 315 10 24 18 52
36 64 39 11 4 48 25 81 46 34 22 65 40 70 40 4 0 25 15 47 34 47 40 75 92 105
196 12 41 31 88 42 103 10 16 25 49 33 73 24 79 -11 185 -82 248 -16 14 -25
36 -29 67 -9 81 -33 124 -103 182 -19 15 -27 27 -19 27 17 0 127 107 127 123
0 6 6 18 13 26 33 40 56 176 36 214 -6 9 -20 17 -34 17 -13 0 -25 4 -27 8 -5
13 -127 43 -178 44 -25 0 -63 -3 -85 -6 -22 -4 -51 -9 -65 -10 -13 -2 -26 -9
-28 -15 -2 -6 -12 -11 -21 -11 -24 0 -75 -49 -92 -89 -17 -39 -23 -39 -40 1
-15 36 -67 90 -83 85 -5 -2 -18 4 -28 12 -10 8 -28 17 -40 18 -45 6 -83 12
-103 17 -11 2 -49 -1 -85 -9z"/>
</g>
</svg>
